<?xml version="1.0" encoding="UTF-8" standalone="no"?>
<!-- Created with Inkscape (http://www.inkscape.org/) -->

<svg
   xmlns:dc="http://purl.org/dc/elements/1.1/"
   xmlns:cc="http://creativecommons.org/ns#"
   xmlns:rdf="http://www.w3.org/1999/02/22-rdf-syntax-ns#"
   xmlns:svg="http://www.w3.org/2000/svg"
   xmlns="http://www.w3.org/2000/svg"
   xmlns:sodipodi="http://sodipodi.sourceforge.net/DTD/sodipodi-0.dtd"
   xmlns:inkscape="http://www.inkscape.org/namespaces/inkscape"
   width="744.09448819"
   height="1052.3622047"
   id="svg2"
   version="1.1"
   inkscape:version="0.48.3.1 r9886"
   sodipodi:docname="icons.svg">
  <defs
     id="defs4" />
  <sodipodi:namedview
     id="base"
     pagecolor="#ffffff"
     bordercolor="#666666"
     borderopacity="1.0"
     inkscape:pageopacity="0.0"
     inkscape:pageshadow="2"
     inkscape:zoom="0.99547041"
     inkscape:cx="568.71162"
     inkscape:cy="841.84287"
     inkscape:document-units="px"
     inkscape:current-layer="layer1"
     showgrid="false"
     inkscape:window-width="1020"
     inkscape:window-height="904"
     inkscape:window-x="212"
     inkscape:window-y="101"
     inkscape:window-maximized="0" />
  <metadata
     id="metadata7">
    <rdf:RDF>
      <cc:Work
         rdf:about="">
        <dc:format>image/svg+xml</dc:format>
        <dc:type
           rdf:resource="http://purl.org/dc/dcmitype/StillImage" />
        <dc:title></dc:title>
      </cc:Work>
    </rdf:RDF>
  </metadata>
  <g
     inkscape:label="Layer 1"
     inkscape:groupmode="layer"
     id="layer1">
    <g
       id="g3787">
      <path
         transform="matrix(1.0089286,0,0,1.0089286,-416.09208,-1.1218461)"
         d="m 626.43262,188.62743 a 62.980659,62.980659 0 1 1 -125.96131,0 62.980659,62.980659 0 1 1 125.96131,0 z"
         sodipodi:ry="62.980659"
         sodipodi:rx="62.980659"
         sodipodi:cy="188.62743"
         sodipodi:cx="563.45197"
         id="path3009"
         style="color:#000000;fill:#808080;fill-opacity:1;fill-rule:nonzero;stroke:none;stroke-width:6;marker:none;visibility:visible;display:inline;overflow:visible;enable-background:accumulate"
         sodipodi:type="arc" />
      <path
         sodipodi:type="arc"
         style="color:#000000;fill:none;stroke:#ffffff;stroke-width:8.40650749;stroke-miterlimit:4;stroke-dasharray:none;marker:none;visibility:visible;display:inline;overflow:visible;enable-background:accumulate"
         id="path3011"
         sodipodi:cx="563.45197"
         sodipodi:cy="188.62743"
         sodipodi:rx="62.980659"
         sodipodi:ry="62.980659"
         d="m 626.43262,188.62743 a 62.980659,62.980659 0 1 1 -125.96131,0 62.980659,62.980659 0 1 1 125.96131,0 z"
         transform="matrix(0.61756465,0,0,1.1544627,-195.5773,-28.573554)" />
      <rect
         y="107.65228"
         x="150.45441"
         height="163.07492"
         width="89.972374"
         id="rect3781"
         style="color:#000000;fill:none;stroke:#ffffff;stroke-width:7;stroke-linecap:round;stroke-linejoin:round;stroke-miterlimit:4;stroke-opacity:1;stroke-dasharray:none;stroke-dashoffset:0;marker:none;visibility:visible;display:inline;overflow:visible;enable-background:accumulate" />
      <rect
         transform="matrix(0,1,-1,0,0,0)"
         style="color:#000000;fill:none;stroke:#ffffff;stroke-width:6.07426882;stroke-linecap:round;stroke-linejoin:round;stroke-miterlimit:4;stroke-opacity:1;stroke-dasharray:none;stroke-dashoffset:0;marker:none;visibility:visible;display:inline;overflow:visible;enable-background:accumulate"
         id="rect3783"
         width="67.748734"
         height="163.07492"
         x="156.01538"
         y="-235.36584" />
      <rect
         y="-235.36584"
         x="188.63037"
         height="163.07492"
         width="67.748734"
         id="rect3785"
         style="color:#000000;fill:none;stroke:#ffffff;stroke-width:6.07426882;stroke-linecap:round;stroke-linejoin:round;stroke-miterlimit:4;stroke-opacity:1;stroke-dasharray:none;stroke-dashoffset:0;marker:none;visibility:visible;display:inline;overflow:visible;enable-background:accumulate"
         transform="matrix(0,1,-1,0,0,0)" />
    </g>
    <path
       transform="matrix(1.0089286,0,0,1.0089286,-181.03926,-1.1218461)"
       d="m 626.43262,188.62743 a 62.980659,62.980659 0 1 1 -125.96131,0 62.980659,62.980659 0 1 1 125.96131,0 z"
       sodipodi:ry="62.980659"
       sodipodi:rx="62.980659"
       sodipodi:cy="188.62743"
       sodipodi:cx="563.45197"
       id="path3796"
       style="color:#000000;fill:#808080;fill-opacity:1;fill-rule:nonzero;stroke:none;stroke-width:6;marker:none;visibility:visible;display:inline;overflow:visible;enable-background:accumulate"
       sodipodi:type="arc"
       inkscape:export-filename="/home/mic/Sites/askoschoenberg.nl/site/newsgrid/images/newsitem2.png"
       inkscape:export-xdpi="11"
       inkscape:export-ydpi="11" />
    <path
       sodipodi:type="arc"
       style="color:#000000;fill:none;stroke:#ffffff;stroke-width:8.40650749;stroke-miterlimit:4;stroke-dasharray:none;marker:none;visibility:visible;display:inline;overflow:visible;enable-background:accumulate"
       id="path3798"
       sodipodi:cx="563.45197"
       sodipodi:cy="188.62743"
       sodipodi:rx="62.980659"
       sodipodi:ry="62.980659"
       d="m 626.43262,188.62743 a 62.980659,62.980659 0 1 1 -125.96131,0 62.980659,62.980659 0 1 1 125.96131,0 z"
       transform="matrix(0.61756465,0,0,1.1544627,39.47552,-28.573554)" />
    <rect
       y="107.65228"
       x="385.50723"
       height="163.07492"
       width="89.972374"
       id="rect3800"
       style="color:#000000;fill:none;stroke:#ffffff;stroke-width:7;stroke-linecap:round;stroke-linejoin:round;stroke-miterlimit:4;stroke-opacity:1;stroke-dasharray:none;stroke-dashoffset:0;marker:none;visibility:visible;display:inline;overflow:visible;enable-background:accumulate" />
    <rect
       transform="matrix(0,1,-1,0,0,0)"
       style="color:#000000;fill:none;stroke:#ffffff;stroke-width:6.07426882;stroke-linecap:round;stroke-linejoin:round;stroke-miterlimit:4;stroke-opacity:1;stroke-dasharray:none;stroke-dashoffset:0;marker:none;visibility:visible;display:inline;overflow:visible;enable-background:accumulate"
       id="rect3802"
       width="67.748734"
       height="163.07492"
       x="156.01538"
       y="-470.41867" />
    <rect
       y="-470.41867"
       x="188.63037"
       height="163.07492"
       width="67.748734"
       id="rect3804"
       style="color:#000000;fill:none;stroke:#ffffff;stroke-width:6.07426882;stroke-linecap:round;stroke-linejoin:round;stroke-miterlimit:4;stroke-opacity:1;stroke-dasharray:none;stroke-dashoffset:0;marker:none;visibility:visible;display:inline;overflow:visible;enable-background:accumulate"
       transform="matrix(0,1,-1,0,0,0)" />
    <path
       style="color:#000000;fill:#333333;stroke:none;stroke-width:6;marker:none;visibility:visible;display:inline;overflow:visible;enable-background:accumulate"
       d="m 383.94258,208.21817 c -37.11361,0 -40.5964,-14.22143 -40.5964,-34.46522 0,-20.24378 0,-7.8675 0,-7.8675 l -20.13495,0 31.49033,-39.36799 30.36568,39.36799 -19.0103,0 c 0,0 0,-0.005 0,11.24147 0,13.42329 17.88564,10.12189 17.88564,10.12189 z"
       id="path3806"
       inkscape:connector-curvature="0"
       sodipodi:nodetypes="cscccccscc" />
    <rect
       style="color:#000000;fill:#333333;fill-opacity:1;fill-rule:nonzero;stroke:none;stroke-width:7;marker:none;visibility:visible;display:inline;overflow:visible;enable-background:accumulate"
       id="rect3808"
       width="23.508909"
       height="54.854122"
       x="411.84128"
       y="195.59302" />
    <rect
       y="-451.0228"
       x="211.26562"
       height="54.854122"
       width="23.508909"
       id="rect3810"
       style="color:#000000;fill:#333333;fill-opacity:1;fill-rule:nonzero;stroke:none;stroke-width:7;marker:none;visibility:visible;display:inline;overflow:visible;enable-background:accumulate"
       transform="matrix(0,1,-1,0,0,0)" />
    <path
       sodipodi:type="arc"
       style="color:#000000;fill:#808080;fill-opacity:1;fill-rule:nonzero;stroke:none;stroke-width:6;marker:none;visibility:visible;display:inline;overflow:visible;enable-background:accumulate"
       id="path3862"
       sodipodi:cx="563.45197"
       sodipodi:cy="188.62743"
       sodipodi:rx="62.980659"
       sodipodi:ry="62.980659"
       d="m 626.43262,188.62743 a 62.980659,62.980659 0 1 1 -125.96131,0 62.980659,62.980659 0 1 1 125.96131,0 z"
       transform="matrix(1.0089286,0,0,1.0089286,74.116492,-1.1218461)"
       inkscape:export-filename="/home/mic/Sites/askoschoenberg.nl/site/newsgrid/images/newsitem.png"
       inkscape:export-xdpi="11"
       inkscape:export-ydpi="11" />
    <path
       transform="matrix(0.61756465,0,0,1.1544627,294.63127,-28.573554)"
       d="m 626.43262,188.62743 a 62.980659,62.980659 0 1 1 -125.96131,0 62.980659,62.980659 0 1 1 125.96131,0 z"
       sodipodi:ry="62.980659"
       sodipodi:rx="62.980659"
       sodipodi:cy="188.62743"
       sodipodi:cx="563.45197"
       id="path3864"
       style="color:#000000;fill:none;stroke:#ffffff;stroke-width:8.40650749;stroke-miterlimit:4;stroke-dasharray:none;marker:none;visibility:visible;display:inline;overflow:visible;enable-background:accumulate"
       sodipodi:type="arc" />
    <rect
       style="color:#000000;fill:none;stroke:#ffffff;stroke-width:7;stroke-linecap:round;stroke-linejoin:round;stroke-miterlimit:4;stroke-opacity:1;stroke-dasharray:none;stroke-dashoffset:0;marker:none;visibility:visible;display:inline;overflow:visible;enable-background:accumulate"
       id="rect3866"
       width="89.972374"
       height="163.07492"
       x="640.66296"
       y="107.65228" />
    <rect
       y="-725.5744"
       x="156.01538"
       height="163.07492"
       width="67.748734"
       id="rect3868"
       style="color:#000000;fill:none;stroke:#ffffff;stroke-width:6.07426882;stroke-linecap:round;stroke-linejoin:round;stroke-miterlimit:4;stroke-opacity:1;stroke-dasharray:none;stroke-dashoffset:0;marker:none;visibility:visible;display:inline;overflow:visible;enable-background:accumulate"
       transform="matrix(0,1,-1,0,0,0)" />
    <rect
       transform="matrix(0,1,-1,0,0,0)"
       style="color:#000000;fill:none;stroke:#ffffff;stroke-width:6.07426882;stroke-linecap:round;stroke-linejoin:round;stroke-miterlimit:4;stroke-opacity:1;stroke-dasharray:none;stroke-dashoffset:0;marker:none;visibility:visible;display:inline;overflow:visible;enable-background:accumulate"
       id="rect3870"
       width="67.748734"
       height="163.07492"
       x="188.63037"
       y="-725.5744" />
    <path
       sodipodi:nodetypes="cscccccscc"
       inkscape:connector-curvature="0"
       id="path3872"
       d="m 692.76632,206.86064 c -46.66614,29.79521 -62.46248,14.70941 -78.71442,-10.74485 -16.25193,-25.45425 -6.31612,-9.89249 -6.31612,-9.89249 l -25.3174,16.16456 7.99044,-74.78155 69.78645,25.12286 -23.90329,15.26168 c 0,0 -0.004,-0.006 9.02478,14.13487 10.77637,16.87826 30.61512,-1.63167 30.61512,-1.63167 z"
       style="color:#000000;fill:#333333;stroke:none;stroke-width:6;marker:none;visibility:visible;display:inline;overflow:visible;enable-background:accumulate" />
  </g>
</svg>
